<?xml version="1.0" encoding="utf-8"?>
<!-- Generator: Adobe Illustrator 15.1.0, SVG Export Plug-In . SVG Version: 6.00 Build 0)  -->
<!DOCTYPE svg PUBLIC "-//W3C//DTD SVG 1.1//EN" "http://www.w3.org/Graphics/SVG/1.1/DTD/svg11.dtd">
<svg version="1.1" id="Layer_1" xmlns="http://www.w3.org/2000/svg" xmlns:xlink="http://www.w3.org/1999/xlink" x="0px" y="0px"
	 width="520px" height="550px" viewBox="0 0 520 550" enable-background="new 0 0 520 550" xml:space="preserve">
<g>
	<line fill="none" stroke="#2552AD" stroke-width="5" x1="141.819" y1="391.579" x2="172.364" y2="365.239"/>
	<linearGradient id="SVGID_1_" gradientUnits="userSpaceOnUse" x1="104.2798" y1="506.2043" x2="182.4192" y2="382.2592">
		<stop  offset="0" style="stop-color:#2EC8FF"/>
		<stop  offset="1" style="stop-color:#00B5F4"/>
	</linearGradient>
	<polygon fill="url(#SVGID_1_)" points="110.539,548.99 191.77,327.064 185.443,324.749 103.365,548.99 	"/>
	<linearGradient id="SVGID_2_" gradientUnits="userSpaceOnUse" x1="234.8901" y1="515.2502" x2="170.2232" y2="372.4437">
		<stop  offset="0" style="stop-color:#2EC8FF"/>
		<stop  offset="1" style="stop-color:#00B5F4"/>
	</linearGradient>
	<polygon fill="url(#SVGID_2_)" points="244.022,548.99 161.944,324.749 155.617,327.064 236.849,548.99 	"/>
	<linearGradient id="SVGID_3_" gradientUnits="userSpaceOnUse" x1="173.6938" y1="384.1077" x2="173.6938" y2="555.2053">
		<stop  offset="0" style="stop-color:#2EC8FF"/>
		<stop  offset="1" style="stop-color:#00B5F4"/>
	</linearGradient>
	<rect x="170.325" y="363.367" fill="url(#SVGID_3_)" width="6.737" height="185.623"/>
	<linearGradient id="SVGID_4_" gradientUnits="userSpaceOnUse" x1="170.3252" y1="482.9241" x2="177.062" y2="482.9241">
		<stop  offset="0" style="stop-color:#3265CC"/>
		<stop  offset="1" style="stop-color:#1F57B2"/>
	</linearGradient>
	<rect x="170.325" y="479.8" fill="url(#SVGID_4_)" width="6.737" height="6.247"/>
	
		<linearGradient id="SVGID_5_" gradientUnits="userSpaceOnUse" x1="186.397" y1="-555.0593" x2="193.1343" y2="-555.0593" gradientTransform="matrix(0.9391 -0.3437 0.3437 0.9391 227.2942 1065.2385)">
		<stop  offset="0" style="stop-color:#3265CC"/>
		<stop  offset="1" style="stop-color:#1F57B2"/>
	</linearGradient>
	<polygon fill="url(#SVGID_5_)" points="212.64,482.85 218.965,480.535 216.819,474.668 210.492,476.984 	"/>
	
		<linearGradient id="SVGID_6_" gradientUnits="userSpaceOnUse" x1="5330.3398" y1="1327.5657" x2="5337.0771" y2="1327.5657" gradientTransform="matrix(-0.9391 -0.3437 -0.3437 0.9391 5597.8291 1065.2385)">
		<stop  offset="0" style="stop-color:#3265CC"/>
		<stop  offset="1" style="stop-color:#1F57B2"/>
	</linearGradient>
	<polygon fill="url(#SVGID_6_)" points="134.747,482.85 128.422,480.535 130.568,474.668 136.896,476.984 	"/>
	<linearGradient id="SVGID_7_" gradientUnits="userSpaceOnUse" x1="280.3555" y1="495.925" x2="280.3555" y2="538.7053">
		<stop  offset="0" style="stop-color:#3265CC"/>
		<stop  offset="1" style="stop-color:#1F57B2"/>
	</linearGradient>
	<path fill="url(#SVGID_7_)" d="M279.283,549.54h2.194c-0.08-0.074-0.089-0.193-0.028-0.352c0.094-0.242,0.202-0.479,0.309-0.715
		c0.977-2.161,1.956-4.322,2.929-6.487c0.137-0.303,0.275-0.612,0.346-0.933c0.069-0.315-0.069-0.602-0.386-0.722
		c-0.299-0.111-0.6-0.069-0.793,0.216c-0.145,0.214-0.254,0.452-0.362,0.688c-0.599,1.315-1.192,2.634-1.787,3.951
		c-0.092,0.203-0.175,0.41-0.272,0.61c-0.062,0.126-0.117,0.31-0.308,0.211c-0.063-0.031-0.079-0.187-0.083-0.287
		c-0.011-0.26-0.006-0.52-0.006-0.779c0-2.412,0-4.824,0-7.235c0-0.26,0.004-0.52-0.012-0.778c-0.022-0.384-0.214-0.637-0.613-0.655
		c-0.445-0.02-0.692,0.229-0.729,0.663c-0.025,0.295-0.017,0.593-0.017,0.891c-0.001,2.597-0.001,5.193-0.005,7.79
		c0,0.134,0.062,0.329-0.109,0.378c-0.178,0.051-0.232-0.145-0.287-0.267c-0.661-1.452-1.314-2.907-1.973-4.357
		c-0.122-0.27-0.233-0.55-0.396-0.793c-0.214-0.323-0.542-0.384-0.879-0.211c-0.299,0.153-0.415,0.436-0.325,0.753
		c0.079,0.284,0.212,0.554,0.333,0.823c1.035,2.299,2.078,4.594,3.106,6.896C279.315,549.255,279.388,549.448,279.283,549.54z"/>
	<linearGradient id="SVGID_8_" gradientUnits="userSpaceOnUse" x1="422.5859" y1="495.926" x2="422.5859" y2="538.7053">
		<stop  offset="0" style="stop-color:#3265CC"/>
		<stop  offset="1" style="stop-color:#1F57B2"/>
	</linearGradient>
	<path fill="url(#SVGID_8_)" d="M430.093,543.318c-0.83-1.39-1.915-2.552-3.562-2.813c-1.069-0.168-1.355-0.692-1.548-1.634
		c-0.42-2.059-0.97-4.101-2.158-5.878c-1.82-2.725-4.559-2.715-6.413,0c-0.958,1.399-1.485,2.98-1.89,4.606
		c-0.836,3.357-1.193,6.779-1.41,10.228c-0.066,1.054-0.079,1.515-0.279,1.713h19.505c-0.224-0.138-0.29-0.429-0.424-1.069
		C431.54,546.67,431.045,544.912,430.093,543.318z"/>
	<linearGradient id="SVGID_9_" gradientUnits="userSpaceOnUse" x1="113.4526" y1="390.5139" x2="146.0815" y2="390.5139">
		<stop  offset="0" style="stop-color:#3265CC"/>
		<stop  offset="1" style="stop-color:#1F57B2"/>
	</linearGradient>
	<path fill="url(#SVGID_9_)" d="M129.774,387.752c-4.197,0-8.394-0.003-12.591,0.002c-0.484,0-0.977-0.027-1.448,0.06
		c-1.402,0.261-2.369,1.524-2.276,2.9c0.089,1.318,1.121,2.378,2.5,2.531c0.426,0.047,0.859,0.028,1.289,0.028
		c8.34,0.002,16.68,0.002,25.021,0.001c0.43,0,0.864,0.019,1.29-0.029c1.441-0.155,2.5-1.294,2.523-2.676
		c0.022-1.375-1.005-2.571-2.428-2.778c-0.423-0.063-0.859-0.038-1.289-0.038C138.167,387.749,133.971,387.752,129.774,387.752z"/>
	<linearGradient id="SVGID_10_" gradientUnits="userSpaceOnUse" x1="423.5352" y1="544.5481" x2="426.9786" y2="549.1392">
		<stop  offset="0" style="stop-color:#5CE6FF"/>
		<stop  offset="1" style="stop-color:#2FC8FF"/>
	</linearGradient>
	<path fill="url(#SVGID_10_)" d="M425.595,549.019c0,0,0-0.001,0-0.002c1.232,0,2.467-0.015,3.7,0.006
		c0.622,0.011,0.905-0.215,0.767-0.855c-0.373-1.736-0.82-3.447-1.866-4.926c-1.524-2.147-3.928-2.189-5.479-0.068
		c-1.071,1.467-1.482,3.188-1.743,4.955c-0.112,0.763,0.278,0.909,0.92,0.897C423.127,549.003,424.359,549.019,425.595,549.019z"/>
	<linearGradient id="SVGID_11_" gradientUnits="userSpaceOnUse" x1="129.2979" y1="170.6189" x2="154.1983" y2="190.6876">
		<stop  offset="0" style="stop-color:#3265CC"/>
		<stop  offset="1" style="stop-color:#1F57B2"/>
	</linearGradient>
	<circle fill="url(#SVGID_11_)" cx="141.829" cy="180.719" r="25.273"/>
	<g>
		<linearGradient id="SVGID_12_" gradientUnits="userSpaceOnUse" x1="107.6362" y1="185.8079" x2="195.8793" y2="174.3565">
			<stop  offset="0" style="stop-color:#2EC8FF"/>
			<stop  offset="1" style="stop-color:#00B5F4"/>
		</linearGradient>
		<path fill="url(#SVGID_12_)" d="M181.708,159.673c-1.446-2.645-8.572-1.281-21.18,4.046c0.472,0.52,0.926,1.059,1.357,1.623
			c13.854-5.781,17.769-5.212,18.05-4.699c0.009,0.017,0.506,2.008-8.782,9.098c-6.664,5.087-16.006,10.992-26.306,16.625
			c-6.899,3.773-13.821,7.193-20.018,9.89c-15.913,6.927-20.273,6.316-20.57,5.774c-0.009-0.018-0.506-2.008,8.781-9.099
			c1.537-1.173,3.221-2.39,5.02-3.636c-0.24-0.666-0.454-1.334-0.636-2.004c-9.213,6.293-16.611,12.65-14.938,15.708
			c1.52,2.78,9.309,1.134,23.15-4.89c6.25-2.721,13.228-6.169,20.18-9.971C159.519,180.646,184.651,165.054,181.708,159.673z"/>
		<linearGradient id="SVGID_13_" gradientUnits="userSpaceOnUse" x1="107.5518" y1="185.1672" x2="195.7954" y2="173.7158">
			<stop  offset="0" style="stop-color:#2EC8FF"/>
			<stop  offset="1" style="stop-color:#00B5F4"/>
		</linearGradient>
		<path fill="url(#SVGID_13_)" d="M163.478,167.688c0.362,0.604,0.707,1.224,1.022,1.866c2.132-0.377,4.167-0.699,6.073-0.951
			c10.133-1.342,12.922-0.276,13.098,0.205c0.008,0.019-0.041,2.298-12.387,7.673c0,0-0.001,0-0.002,0.001
			c-7.376,3.21-17.107,6.603-27.401,9.553c-11.383,3.262-22.319,5.676-30.793,6.798c-10.134,1.342-12.922,0.276-13.1-0.203
			c-0.007-0.02,0.043-2.301,12.389-7.675c1.356-0.59,2.794-1.188,4.298-1.786c-0.069-0.708-0.112-1.417-0.121-2.124
			c-1.752,0.69-3.423,1.376-4.983,2.057c-14.869,6.471-13.859,9.201-13.479,10.229c2.1,5.667,31.233-1.024,46.345-5.355
			c10.375-2.973,20.195-6.398,27.65-9.643c0.002-0.001,0.002,0,0.003-0.001c14.864-6.47,13.856-9.2,13.475-10.228
			C184.379,164.898,174.537,165.649,163.478,167.688z"/>
	</g>
	<radialGradient id="SVGID_14_" cx="436.4043" cy="165.323" r="62.4865" gradientUnits="userSpaceOnUse">
		<stop  offset="0" style="stop-color:#2EC8FF"/>
		<stop  offset="1" style="stop-color:#00B5F4"/>
	</radialGradient>
	<circle fill="url(#SVGID_14_)" cx="453.606" cy="188.186" r="47.105"/>
	
		<radialGradient id="SVGID_15_" cx="468.6895" cy="178.4939" r="11.7149" fx="480.3154" fy="179.9349" gradientUnits="userSpaceOnUse">
		<stop  offset="0" style="stop-color:#2EC8FF"/>
		<stop  offset="1" style="stop-color:#00B5F4"/>
	</radialGradient>
	<circle fill="url(#SVGID_15_)" cx="465.321" cy="172.431" r="11.715"/>
	<radialGradient id="SVGID_16_" cx="474.8174" cy="217.5134" r="11.7959" gradientUnits="userSpaceOnUse">
		<stop  offset="0" style="stop-color:#2EC8FF"/>
		<stop  offset="1" style="stop-color:#00B5F4"/>
	</radialGradient>
	<circle fill="url(#SVGID_16_)" cx="469.754" cy="212.177" r="8.87"/>
	<radialGradient id="SVGID_17_" cx="433.8496" cy="208.1467" r="10.0531" gradientUnits="userSpaceOnUse">
		<stop  offset="0" style="stop-color:#2EC8FF"/>
		<stop  offset="1" style="stop-color:#00B5F4"/>
	</radialGradient>
	<circle fill="url(#SVGID_17_)" cx="430.819" cy="206.933" r="6.256"/>
	<linearGradient id="SVGID_18_" gradientUnits="userSpaceOnUse" x1="473.5557" y1="495.9241" x2="473.5557" y2="538.705">
		<stop  offset="0" style="stop-color:#4A7BF1"/>
		<stop  offset="1" style="stop-color:#1B50CF"/>
	</linearGradient>
	<path fill="url(#SVGID_18_)" d="M472,549.54h3.185c-0.115-0.107-0.128-0.281-0.039-0.51c0.136-0.351,0.292-0.695,0.447-1.037
		c1.419-3.142,2.842-6.279,4.255-9.423c0.197-0.438,0.398-0.89,0.501-1.355c0.101-0.458-0.101-0.873-0.561-1.047
		c-0.433-0.162-0.873-0.102-1.151,0.313c-0.209,0.311-0.37,0.655-0.525,0.997c-0.87,1.91-1.732,3.826-2.598,5.74
		c-0.132,0.294-0.253,0.594-0.395,0.885c-0.09,0.183-0.171,0.449-0.447,0.308c-0.09-0.046-0.114-0.272-0.12-0.418
		c-0.017-0.376-0.009-0.754-0.009-1.131c0-3.503,0-7.005,0-10.509c0-0.377,0.005-0.755-0.018-1.13
		c-0.031-0.557-0.311-0.926-0.89-0.952c-0.646-0.028-1.005,0.333-1.061,0.964c-0.037,0.427-0.023,0.861-0.023,1.292
		c-0.002,3.771-0.001,7.543-0.007,11.315c0,0.193,0.089,0.478-0.159,0.549c-0.259,0.073-0.337-0.213-0.417-0.39
		c-0.961-2.107-1.909-4.219-2.864-6.328c-0.178-0.391-0.34-0.798-0.575-1.151c-0.313-0.47-0.789-0.557-1.277-0.306
		c-0.434,0.224-0.603,0.634-0.472,1.095c0.114,0.41,0.307,0.804,0.482,1.194c1.504,3.338,3.019,6.671,4.512,10.014
		C472.046,549.126,472.15,549.406,472,549.54z"/>
	<linearGradient id="SVGID_19_" gradientUnits="userSpaceOnUse" x1="358.6367" y1="495.926" x2="358.6367" y2="538.706">
		<stop  offset="0" style="stop-color:#3265CC"/>
		<stop  offset="1" style="stop-color:#1F57B2"/>
	</linearGradient>
	<path fill="url(#SVGID_19_)" d="M364.846,549.445c0.009-0.085,0.101-0.186,0.181-0.235c0.325-0.189,0.659-0.363,0.989-0.54
		c3.52-1.896,6.853-4.07,9.938-6.617c1.541-1.271,3.003-2.627,4.213-4.229c0.684-0.905,1.269-1.865,1.497-3.01
		c0.399-1.999-0.841-3.698-2.867-3.842c-0.529-0.038-1.077,0.029-1.601,0.131c-1.117,0.217-2.164,0.657-3.155,1.206
		c-0.848,0.47-1.664,0.994-2.5,1.483c-0.179,0.103-0.443,0.266-0.57,0.203c-0.197-0.097-0.109-0.381-0.043-0.583
		c0.149-0.46,0.327-0.911,0.465-1.376c0.442-1.499,0.824-3.009,0.819-4.595c-0.006-1.655-0.325-3.169-2.022-3.883
		c-1.688-0.711-3.021,0.109-4.223,1.226c-0.714,0.664-1.297,1.439-1.847,2.242c-0.212,0.311-0.414,0.629-0.614,0.948
		c-0.114,0.182-0.216,0.426-0.443,0.415c-0.404-0.019-0.256-0.394-0.306-0.619c-0.128-0.578-0.197-1.17-0.333-1.744
		c-0.285-1.211-0.64-2.398-1.398-3.414c-1.419-1.896-3.74-1.943-5.224-0.105c-0.69,0.856-1.053,1.873-1.331,2.919
		c-0.166,0.622-0.258,1.265-0.398,1.895c-0.03,0.139-0.1,0.319-0.207,0.379c-0.15,0.082-0.298-0.047-0.396-0.186
		c-0.343-0.481-0.669-0.978-1.031-1.446c-0.729-0.943-1.533-1.818-2.623-2.356c-1.937-0.959-3.825-0.164-4.534,1.873
		c-0.199,0.572-0.241,1.155-0.247,1.751c-0.019,1.692,0.429,3.298,0.896,4.905c0.161,0.554,0.736,1.353,0.358,1.622
		c-0.513,0.366-1.065-0.424-1.585-0.727c-1.589-0.927-3.193-1.822-5.03-2.124c-3.051-0.499-4.911,1.78-3.819,4.667
		c0.227,0.598,0.566,1.162,0.921,1.699c0.564,0.854,1.253,1.615,1.979,2.34c3.621,3.609,7.851,6.37,12.28,8.858
		c0.474,0.267,1.322,0.296,1.263,0.964h12.565C364.853,549.512,364.842,549.489,364.846,549.445z"/>
	<g>
		<path fill="#1F57B2" d="M507.456,550H42.81c-0.558,0-1.011-0.452-1.011-1.01c0-0.559,0.453-1.012,1.011-1.012h464.646
			c0.559,0,1.012,0.453,1.012,1.012C508.468,549.548,508.015,550,507.456,550z"/>
	</g>
	<linearGradient id="SVGID_20_" gradientUnits="userSpaceOnUse" x1="164.6587" y1="364.5344" x2="182.6704" y2="364.5344">
		<stop  offset="0" style="stop-color:#2552AD"/>
		<stop  offset="1" style="stop-color:#17448E"/>
	</linearGradient>
	<circle fill="url(#SVGID_20_)" cx="173.665" cy="364.534" r="9.005"/>
	<path fill="#00A6FB" d="M173.038,360.358c-2.305,0.348-3.894,2.497-3.548,4.803c0.347,2.306,2.495,3.894,4.801,3.547
		c2.307-0.344,3.894-2.495,3.548-4.8C177.492,361.602,175.342,360.013,173.038,360.358z"/>
	<g>
		<path fill="#17448E" d="M319.981,304.734c3.184,12.839,3.626,23.779,0.987,24.434c-2.638,0.654-7.36-9.226-10.544-22.063
			c-3.187-12.843-3.627-23.781-0.99-24.436C312.073,282.014,316.796,291.891,319.981,304.734z"/>
		
			<linearGradient id="SVGID_21_" gradientUnits="userSpaceOnUse" x1="319.584" y1="98.6511" x2="319.584" y2="108.9253" gradientTransform="matrix(0.9706 -0.2408 0.2408 0.9706 -308.4647 343.6443)">
			<stop  offset="0" style="stop-color:#2EC8FF"/>
			<stop  offset="1" style="stop-color:#00B5F4"/>
		</linearGradient>
		<polygon fill="url(#SVGID_21_)" points="50.964,356.181 53.93,368.14 2.966,380.781 0,368.823 		"/>
		
			<linearGradient id="SVGID_22_" gradientUnits="userSpaceOnUse" x1="296.4678" y1="99.2732" x2="296.4678" y2="108.6133" gradientTransform="matrix(0.9706 -0.2408 0.2408 0.9706 -308.4647 343.6443)">
			<stop  offset="0" style="stop-color:#2552AD"/>
			<stop  offset="1" style="stop-color:#17448E"/>
		</linearGradient>
		<polygon fill="url(#SVGID_22_)" points="6.092,367.312 9.058,379.271 2.966,380.781 0,368.823 		"/>
		
			<linearGradient id="SVGID_23_" gradientUnits="userSpaceOnUse" x1="465.5762" y1="92.7336" x2="465.5762" y2="71.5621" gradientTransform="matrix(0.9706 -0.2408 0.2408 0.9706 -308.4647 343.6443)">
			<stop  offset="0" style="stop-color:#2552AD"/>
			<stop  offset="1" style="stop-color:#17448E"/>
		</linearGradient>
		<polygon fill="url(#SVGID_23_)" points="167.552,300.555 172.545,320.686 159.324,323.965 154.331,303.835 		"/>
		
			<linearGradient id="SVGID_24_" gradientUnits="userSpaceOnUse" x1="172.6812" y1="320.4954" x2="179.7539" y2="359.8987" gradientTransform="matrix(0.9976 -0.0686 0.0686 0.9976 -18.4014 12.2046)">
			<stop  offset="0" style="stop-color:#3265CC"/>
			<stop  offset="1" style="stop-color:#1F57B2"/>
		</linearGradient>
		<polygon fill="url(#SVGID_24_)" points="41.444,353.829 50.79,391.505 321.497,331.293 308.907,280.543 		"/>
		
			<linearGradient id="SVGID_25_" gradientUnits="userSpaceOnUse" x1="360.6904" y1="96.1589" x2="360.6904" y2="131.0372" gradientTransform="matrix(0.9706 -0.2408 0.2408 0.9706 -308.4647 343.6443)">
			<stop  offset="0" style="stop-color:#2EC8FF"/>
			<stop  offset="1" style="stop-color:#00B5F4"/>
		</linearGradient>
		<polygon fill="url(#SVGID_25_)" points="75.077,386.103 65.441,347.253 62.84,347.965 72.446,386.688 		"/>
		
			<linearGradient id="SVGID_26_" gradientUnits="userSpaceOnUse" x1="533.8799" y1="90.5544" x2="533.8799" y2="130.4133" gradientTransform="matrix(0.9706 -0.2408 0.2408 0.9706 -308.4647 343.6443)">
			<stop  offset="0" style="stop-color:#2EC8FF"/>
			<stop  offset="1" style="stop-color:#00B5F4"/>
		</linearGradient>
		<polygon fill="url(#SVGID_26_)" points="247.521,347.748 235.817,300.569 226.628,303.087 238.218,349.818 		"/>
		
			<linearGradient id="SVGID_27_" gradientUnits="userSpaceOnUse" x1="117.5991" y1="297.6223" x2="199.9351" y2="297.6223" gradientTransform="matrix(0.9976 -0.0686 0.0686 0.9976 -18.4014 12.2046)">
			<stop  offset="0" style="stop-color:#3265CC"/>
			<stop  offset="1" style="stop-color:#1F57B2"/>
		</linearGradient>
		<polygon fill="url(#SVGID_27_)" points="198.613,282.863 201.37,293.977 122.183,313.618 119.426,302.504 		"/>
		
			<linearGradient id="SVGID_28_" gradientUnits="userSpaceOnUse" x1="428.3438" y1="63.7786" x2="428.3438" y2="74.988" gradientTransform="matrix(0.9706 -0.2408 0.2408 0.9706 -308.4647 343.6443)">
			<stop  offset="0" style="stop-color:#2EC8FF"/>
			<stop  offset="1" style="stop-color:#00B5F4"/>
		</linearGradient>
		<polygon fill="url(#SVGID_28_)" points="125.512,300.994 128.27,312.11 122.183,313.618 119.426,302.504 		"/>
		
			<linearGradient id="SVGID_29_" gradientUnits="userSpaceOnUse" x1="337.1641" y1="107.3679" x2="337.1641" y2="120.7572" gradientTransform="matrix(0.9706 -0.2408 0.2408 0.9706 -308.4647 343.6443)">
			<stop  offset="0" style="stop-color:#2552AD"/>
			<stop  offset="1" style="stop-color:#17448E"/>
		</linearGradient>
		<circle fill="url(#SVGID_29_)" cx="46.117" cy="372.667" r="8.673"/>
		<circle fill="#66A1FF" cx="46.117" cy="372.666" r="4.041"/>
		
			<ellipse transform="matrix(0.9706 -0.2407 0.2407 0.9706 -63.5373 56.6119)" fill="#3265CC" cx="199.992" cy="288.418" rx="1.485" ry="5.727"/>
		
			<linearGradient id="SVGID_30_" gradientUnits="userSpaceOnUse" x1="505.4492" y1="64.4294" x2="505.4492" y2="77.4535" gradientTransform="matrix(0.9706 -0.2408 0.2408 0.9706 -308.4647 343.6443)">
			<stop  offset="0" style="stop-color:#2EC8FF"/>
			<stop  offset="1" style="stop-color:#00B5F4"/>
		</linearGradient>
		<polygon fill="url(#SVGID_30_)" points="198.127,280.9 201.857,295.938 199.241,296.586 195.511,281.549 		"/>
		
			<linearGradient id="SVGID_31_" gradientUnits="userSpaceOnUse" x1="613.0586" y1="85.9846" x2="613.0586" y2="140.3299" gradientTransform="matrix(0.9706 -0.2408 0.2408 0.9706 -308.4647 343.6443)">
			<stop  offset="0" style="stop-color:#2EC8FF"/>
			<stop  offset="1" style="stop-color:#00B5F4"/>
		</linearGradient>
		<polygon fill="url(#SVGID_31_)" points="308.231,277.806 322.179,334.031 319.563,334.681 305.615,278.457 		"/>
	</g>
	<circle fill="#66A1FF" cx="400.709" cy="125.948" r="1.684"/>
	<circle fill="#66A1FF" cx="237.464" cy="139.398" r="1.684"/>
	<circle fill="#66A1FF" cx="473.555" cy="79.313" r="1.684"/>
	<g>
		<circle fill="#66A1FF" cx="342.707" cy="77.629" r="1.684"/>
		<circle fill="#66A1FF" cx="334.746" cy="129.317" r="1.684"/>
		<circle fill="#66A1FF" cx="349.489" cy="151.937" r="1.684"/>
		<polyline fill="none" stroke="#66A1FF" stroke-width="0.5" stroke-miterlimit="10" points="342.706,77.629 334.745,129.317 
			349.489,151.937 		"/>
	</g>
	<g>
		<circle fill="#66A1FF" cx="202.059" cy="76.569" r="1.684"/>
		<circle fill="#66A1FF" cx="161.832" cy="121.07" r="1.684"/>
		
			<line fill="none" stroke="#66A1FF" stroke-width="0.5" stroke-miterlimit="10" x1="202.059" y1="76.568" x2="161.832" y2="121.07"/>
	</g>
	<g>
		<circle fill="#66A1FF" cx="225.514" cy="225.491" r="1.684"/>
		<circle fill="#66A1FF" cx="284.404" cy="200.677" r="1.684"/>
		<circle fill="#66A1FF" cx="264.058" cy="247.862" r="1.684"/>
		<polyline fill="none" stroke="#66A1FF" stroke-width="0.5" stroke-miterlimit="10" points="225.514,225.491 264.058,247.862 
			284.404,200.677 		"/>
	</g>
	<circle fill="#66A1FF" cx="500.922" cy="213.191" r="1.684"/>
	<circle fill="#66A1FF" cx="358.637" cy="216.334" r="1.684"/>
	<circle fill="#66A1FF" cx="371.099" cy="296.873" r="1.684"/>
	<circle fill="#66A1FF" cx="425.525" cy="269.405" r="1.684"/>
	<circle fill="#66A1FF" cx="437.076" cy="330.456" r="1.684"/>
	<circle fill="#66A1FF" cx="381.738" cy="185.564" r="1.684"/>
	<g>
		<circle fill="#66A1FF" cx="273.799" cy="406.409" r="1.684"/>
		<circle fill="#66A1FF" cx="288.618" cy="378.119" r="1.684"/>
		<line fill="#66A1FF" stroke="#66A1FF" stroke-width="0.5" x1="273.799" y1="406.409" x2="288.618" y2="378.119"/>
	</g>
	<circle fill="#66A1FF" cx="410.171" cy="477.727" r="1.685"/>
	<circle fill="#66A1FF" cx="446.176" cy="258.334" r="1.684"/>
	<circle fill="#66A1FF" cx="287.772" cy="486.047" r="1.684"/>
	<circle fill="#66A1FF" cx="337.089" cy="433.759" r="1.685"/>
	<circle fill="#66A1FF" cx="333.062" cy="181.336" r="1.684"/>
	<circle fill="#66A1FF" cx="372.783" cy="239.073" r="1.684"/>
	<circle fill="#66A1FF" cx="302.704" cy="249.546" r="1.685"/>
	<g>
		<circle fill="#66A1FF" cx="356.807" cy="379.89" r="1.684"/>
		<circle fill="#66A1FF" cx="377.689" cy="394.373" r="1.684"/>
		<circle fill="#66A1FF" cx="406.991" cy="352.947" r="1.684"/>
		<circle fill="#66A1FF" cx="421.81" cy="359.682" r="1.684"/>
		<circle fill="#66A1FF" cx="420.126" cy="376.523" r="1.684"/>
		<polyline fill="none" stroke="#66A1FF" stroke-width="0.5" stroke-miterlimit="10" points="356.807,379.89 377.688,394.373 
			420.126,376.523 421.81,359.682 406.991,352.947 420.126,376.523 		"/>
	</g>
	<g>
		<circle fill="#66A1FF" cx="34.249" cy="320.649" r="1.684"/>
		<circle fill="#66A1FF" cx="73.612" cy="326.843" r="1.684"/>
		
			<line fill="none" stroke="#66A1FF" stroke-width="0.5" stroke-miterlimit="10" x1="34.249" y1="320.649" x2="73.611" y2="326.843"/>
	</g>
	<circle fill="#66A1FF" cx="9.058" cy="267.721" r="1.684"/>
	<circle fill="#66A1FF" cx="225.514" cy="295.19" r="1.684"/>
	<g>
		<circle fill="#66A1FF" cx="77.774" cy="246.396" r="1.684"/>
		<circle fill="#66A1FF" cx="102.361" cy="240.758" r="1.684"/>
		<circle fill="#66A1FF" cx="128.957" cy="258.334" r="1.684"/>
		<polyline fill="none" stroke="#66A1FF" stroke-width="0.5" stroke-miterlimit="10" points="77.774,246.396 102.361,240.758 
			128.957,258.334 		"/>
	</g>
</g>
</svg>
